<svg xmlns="http://www.w3.org/2000/svg" viewBox="0 0 512 512">
  <defs>
    <linearGradient id="goldGradient" x1="0%" y1="0%" x2="100%" y2="100%">
      <stop offset="0%" style="stop-color:#f5d67a" />
      <stop offset="50%" style="stop-color:#d4af37" />
      <stop offset="100%" style="stop-color:#b8860b" />
    </linearGradient>
    <radialGradient id="goldHighlight" cx="50%" cy="30%" r="70%" fx="50%" fy="30%">
      <stop offset="0%" style="stop-color:#fff8e1" />
      <stop offset="50%" style="stop-color:rgba(213,175,55,0.3)" />
      <stop offset="100%" style="stop-color:rgba(184,134,11,0)" />
    </radialGradient>
  </defs>
  
  <!-- Main bomb shape -->
  <path d="M256 40 C 310 60, 350 120, 350 200 Q 350 340, 256 460 Q 162 340, 162 200 C 162 120, 202 60, 256 40" fill="url(#goldGradient)" stroke="#b8860b" stroke-width="2" />
  
  <!-- Crown -->
  <path d="M190 60 L 210 25 L 230 50 L 256 20 L 282 50 L 302 25 L 322 60 L 190 60" fill="url(#goldGradient)" stroke="#b8860b" stroke-width="2" />
  <path d="M200 60 a 112 20 0 0 0 112 0" fill="url(#goldGradient)" stroke="#b8860b" stroke-width="2" />
  
  <!-- Radiation symbol -->
  <circle cx="256" cy="250" r="20" fill="#5a4608" stroke="#b8860b" stroke-width="2" />
  <path d="M256 250 m 0 -70 a 70 70 0 0 1 60.6 30 L 256 250 z" fill="#5a4608" stroke="#b8860b" stroke-width="2" />
  <path d="M256 250 m 0 -70 a 70 70 0 0 0 -60.6 30 L 256 250 z" fill="#5a4608" stroke="#b8860b" stroke-width="2" />
  <path d="M256 250 m 0 35 a 70 70 0 0 0 60.6 -105 L 256 250 z" fill="#5a4608" stroke="#b8860b" stroke-width="2" />
  
  <!-- Highlights -->
  <path d="M256 40 C 310 60, 350 120, 350 200 Q 350 340, 256 460 Q 162 340, 162 200 C 162 120, 202 60, 256 40" fill="url(#goldHighlight)" />
</svg>
