<?xml version="1.0" encoding="UTF-8"?>
<svg width="100" height="100" viewBox="0 0 100 100" xmlns="http://www.w3.org/2000/svg">
  <g fill="#48AEF0">
    <path d="M50,5 C25.1,5 5,25.1 5,50 C5,74.9 25.1,95 50,95 C74.9,95 95,74.9 95,50 C95,25.1 74.9,5 50,5 Z M50,90 C27.9,90 10,72.1 10,50 C10,27.9 27.9,10 50,10 C72.1,10 90,27.9 90,50 C90,72.1 72.1,90 50,90 Z" />
    <path d="M39,38 C39,33.6 42.6,30 47,30 C51.4,30 55,33.6 55,38 C55,42.4 51.4,46 47,46 L30,46 C28.3,46 27,44.7 27,43 C27,41.3 28.3,40 30,40 L47,40 C48.1,40 49,39.1 49,38 C49,36.9 48.1,36 47,36 C45.9,36 45,36.9 45,38 L39,38 Z" />
    <path d="M39,54 C39,49.6 42.6,46 47,46 C51.4,46 55,49.6 55,54 C55,58.4 51.4,62 47,62 L30,62 C28.3,62 27,60.7 27,59 C27,57.3 28.3,56 30,56 L47,56 C48.1,56 49,55.1 49,54 C49,52.9 48.1,52 47,52 C45.9,52 45,52.9 45,54 L39,54 Z" />
    <path d="M53,62 C53,57.6 56.6,54 61,54 C65.4,54 69,57.6 69,62 C69,66.4 65.4,70 61,70 L30,70 C28.3,70 27,68.7 27,67 C27,65.3 28.3,64 30,64 L61,64 C62.1,64 63,63.1 63,62 C63,60.9 62.1,60 61,60 C59.9,60 59,60.9 59,62 L53,62 Z" />
  </g>
</svg>
